# This file uses centimeters as units for non-parametric coordinates.

mtllib Chair.mtl
g default
v -3.926243 7.796678 3.044350
v 3.926243 7.796678 3.044350
v -3.495936 9.129068 3.044350
v 3.926243 9.129068 3.044350
v -3.495936 9.129068 -3.044350
v 3.926243 9.129068 -3.044350
v -3.926243 7.796678 -3.044350
v 3.926243 7.796678 -3.044350
v -3.926243 7.796678 4.109997
v 3.926243 7.796678 4.109997
v 3.926243 8.796678 4.109997
v -3.926243 8.796678 4.109997
v -3.926243 8.796678 -4.109997
v 3.926243 8.796678 -4.109997
v 3.926243 7.796678 -4.109997
v -3.926243 7.796678 -4.109997
v 4.960652 7.796678 -3.044350
v 4.960652 7.796678 3.044350
v 4.960652 8.796678 -3.044350
v 4.960652 8.796678 3.044350
v 4.960652 8.796678 4.109997
v 4.960652 7.796678 4.109997
v 4.960652 7.796678 -4.109997
v 4.960652 8.796678 -4.109997
v -4.960652 7.796678 -3.044350
v -4.960652 7.796678 3.044350
v -4.960652 8.796678 3.044350
v -4.960652 8.796678 -3.044350
v -4.960652 7.796678 4.109997
v -4.960652 8.796678 4.109997
v -4.960652 8.796678 -4.109997
v -4.960652 7.796678 -4.109997
v -4.289288 16.026758 3.044350
v -4.289288 16.026758 -3.044350
v -5.754003 16.026758 -3.044350
v -5.754003 16.026758 3.044350
v -4.719594 16.026758 4.109997
v -5.754003 16.026758 4.109997
v -4.719594 16.026758 -4.109997
v -5.754003 16.026758 -4.109997
v -5.727257 19.694423 3.044350
v -5.727257 19.694423 -3.044350
v -7.191972 19.694423 -3.044350
v -7.191972 19.694423 3.044350
v -6.157563 19.694423 4.109997
v -7.191972 19.694423 4.109997
v -6.157563 19.694423 -4.109997
v -7.191972 19.694423 -4.109997
v 3.926243 0.083075 3.044350
v 3.926243 0.083075 4.109997
v 4.960652 0.083075 3.044350
v 4.960652 0.083075 4.109997
v 3.926243 0.083075 -3.044350
v 3.926243 0.083075 -4.109997
v 4.960652 0.083075 -4.109997
v 4.960652 0.083075 -3.044350
v -3.926243 0.083075 3.044350
v -3.926243 0.083075 4.109997
v -4.960652 0.083075 4.109997
v -4.960652 0.083075 3.044350
v -3.926243 0.083075 -3.044350
v -3.926243 0.083075 -4.109997
v -4.960652 0.083075 -3.044350
v -4.960652 0.083075 -4.109997
vt 0.375000 0.000000
vt 0.625000 0.000000
vt 0.375000 0.250000
vt 0.625000 0.250000
vt 0.375000 0.500000
vt 0.625000 0.500000
vt 0.375000 0.750000
vt 0.625000 0.750000
vt 0.375000 1.000000
vt 0.625000 1.000000
vt 0.875000 0.000000
vt 0.875000 0.250000
vt 0.125000 0.000000
vt 0.125000 0.250000
vt 0.375000 0.000000
vt 0.625000 0.000000
vt 0.625000 0.250000
vt 0.375000 0.250000
vt 0.375000 0.500000
vt 0.625000 0.500000
vt 0.625000 0.750000
vt 0.375000 0.750000
vt 0.625000 0.000000
vt 0.875000 0.000000
vt 0.875000 0.250000
vt 0.625000 0.250000
vt 0.125000 0.000000
vt 0.375000 0.000000
vt 0.375000 0.250000
vt 0.125000 0.250000
vt 0.625000 0.250000
vt 0.625000 0.000000
vt 0.375000 0.000000
vt 0.375000 0.250000
vt 0.625000 0.750000
vt 0.625000 0.750000
vt 0.625000 0.500000
vt 0.625000 0.500000
vt 0.375000 0.500000
vt 0.375000 0.500000
vt 0.375000 0.750000
vt 0.375000 0.750000
vt 0.375000 0.250000
vt 0.375000 0.250000
vt 0.375000 0.250000
vt 0.375000 0.250000
vt 0.625000 0.500000
vt 0.625000 0.500000
vt 0.625000 0.500000
vt 0.625000 0.500000
vt 0.375000 0.500000
vt 0.375000 0.500000
vt 0.375000 0.500000
vt 0.375000 0.500000
vt 0.375000 0.250000
vt 0.375000 0.250000
vt 0.375000 0.250000
vt 0.375000 0.250000
vt 0.625000 0.500000
vt 0.625000 0.500000
vt 0.625000 0.500000
vt 0.625000 0.500000
vt 0.375000 0.500000
vt 0.375000 0.500000
vt 0.375000 0.500000
vt 0.375000 0.500000
vt 0.625000 0.250000
vt 0.625000 0.250000
vt 0.625000 0.250000
vt 0.625000 0.250000
vt 0.625000 0.000000
vt 0.625000 0.000000
vt 0.625000 0.750000
vt 0.625000 0.750000
vt 0.625000 0.750000
vt 0.625000 0.750000
vt 0.375000 0.750000
vt 0.375000 0.750000
vt 0.375000 0.750000
vt 0.375000 0.750000
vn 0.000000 0.000000 1.000000
vn 0.000000 0.000000 1.000000
vn 0.000000 0.000000 1.000000
vn 0.000000 0.000000 1.000000
vn 0.000000 0.998688 0.051202
vn 0.034783 0.998456 0.043308
vn 0.034783 0.998456 -0.043308
vn 0.000000 0.998688 -0.051202
vn 0.000000 0.000000 -1.000000
vn 0.000000 0.000000 -1.000000
vn 0.000000 0.000000 -1.000000
vn 0.000000 0.000000 -1.000000
vn 0.000000 -1.000000 0.000000
vn 0.000000 -1.000000 0.000000
vn 0.000000 -1.000000 0.000000
vn 0.000000 -1.000000 0.000000
vn 1.000000 0.000000 0.000000
vn 1.000000 0.000000 0.000000
vn 1.000000 0.000000 0.000000
vn 1.000000 0.000000 0.000000
vn -1.000000 0.000000 0.000000
vn -1.000000 0.000000 0.000000
vn -0.995386 -0.095952 0.000000
vn -0.995386 -0.095952 0.000000
vn 0.000000 -1.000000 0.000000
vn 0.000000 -1.000000 0.000000
vn 1.000000 0.000000 0.000000
vn 1.000000 0.000000 0.000000
vn 0.000000 0.954639 0.297765
vn 0.018387 0.959413 0.281406
vn -1.000000 0.000000 0.000000
vn -0.995386 -0.095952 0.000000
vn 0.018387 0.959413 -0.281406
vn 0.000000 0.954639 -0.297765
vn 1.000000 0.000000 0.000000
vn 1.000000 0.000000 0.000000
vn 0.000000 -1.000000 0.000000
vn 0.000000 -1.000000 0.000000
vn -0.995386 -0.095952 0.000000
vn -1.000000 0.000000 0.000000
vn 0.000000 -1.000000 0.000000
vn 0.000000 -1.000000 0.000000
vn 0.284992 0.958271 0.022261
vn 0.284992 0.958271 -0.022261
vn 0.156784 0.975837 0.152188
vn 0.000000 0.000000 1.000000
vn 0.000000 0.000000 1.000000
vn 0.000000 -1.000000 0.000000
vn 0.000000 -1.000000 0.000000
vn 0.000000 -1.000000 0.000000
vn 0.000000 -1.000000 0.000000
vn 0.000000 -1.000000 0.000000
vn 0.000000 -1.000000 0.000000
vn 0.000000 -1.000000 0.000000
vn 0.000000 -1.000000 0.000000
vn 0.000000 0.000000 -1.000000
vn 0.000000 0.000000 -1.000000
vn 0.156784 0.975837 -0.152188
vn 0.000000 -1.000000 0.000000
vn 0.000000 -1.000000 0.000000
vn 0.000000 1.000000 0.000000
vn 0.000000 1.000000 0.000000
vn 0.000000 1.000000 0.000000
vn 0.000000 1.000000 0.000000
vn 0.000000 -1.000000 0.000000
vn 0.000000 -1.000000 0.000000
vn 0.000000 -1.000000 0.000000
vn 0.000000 -1.000000 0.000000
vn 0.000000 0.000000 1.000000
vn 0.000000 0.000000 1.000000
vn 0.000000 1.000000 0.000001
vn 0.000000 1.000000 0.000001
vn 0.000000 1.000000 0.000000
vn 0.000000 1.000000 0.000000
vn 0.000000 0.000000 -1.000000
vn 0.000000 0.000000 -1.000000
vn 0.000000 -1.000000 0.000000
vn 0.000000 -1.000000 0.000000
vn 0.000000 -1.000000 0.000000
vn 0.000000 -1.000000 0.000000
vn 0.988908 0.113123 0.096252
vn 0.988908 0.113123 -0.096252
vn 0.976707 0.205677 -0.061163
vn 0.976707 0.205677 0.061163
vn -0.979675 -0.200589 0.000000
vn -0.979675 -0.200589 0.000000
vn 0.916653 0.102950 0.386199
vn 0.906843 0.189244 0.376594
vn -0.979675 -0.200589 0.000000
vn 0.000000 0.000000 1.000000
vn 0.000000 0.000000 1.000000
vn 0.916653 0.102950 -0.386199
vn 0.906843 0.189244 -0.376594
vn 0.000000 0.000000 -1.000000
vn 0.000000 0.000000 -1.000000
vn -0.979675 -0.200589 0.000000
vn 0.929522 0.364435 -0.056358
vn 0.929522 0.364435 0.056358
vn -0.931002 -0.365015 0.000000
vn -0.931002 -0.365015 0.000000
vn 0.871455 0.341668 0.351892
vn -0.931002 -0.365015 0.000000
vn 0.000000 0.000000 1.000000
vn 0.000000 0.000000 1.000000
vn 0.871455 0.341668 -0.351892
vn 0.000000 0.000000 -1.000000
vn 0.000000 0.000000 -1.000000
vn -0.931002 -0.365015 0.000000
vn -1.000000 0.000000 0.000000
vn -1.000000 0.000000 0.000000
vn -1.000000 0.000000 0.000000
vn -1.000000 0.000000 0.000000
vn 0.000000 0.000000 -1.000000
vn 0.000000 0.000000 -1.000000
vn 0.000000 0.000000 -1.000000
vn 0.000000 0.000000 -1.000000
vn 1.000000 0.000000 0.000000
vn 1.000000 0.000000 0.000000
vn 0.000000 0.000000 1.000000
vn 0.000000 0.000000 1.000000
vn -1.000000 0.000000 0.000000
vn -1.000000 0.000000 0.000000
vn -1.000000 0.000000 0.000000
vn -1.000000 0.000000 0.000000
vn 0.000000 0.000000 -1.000000
vn 0.000000 0.000000 -1.000000
vn 1.000000 0.000000 0.000000
vn 1.000000 0.000000 0.000000
vn 0.000000 0.000000 1.000000
vn 0.000000 0.000000 1.000000
vn 0.000000 0.000000 1.000000
vn 0.000000 0.000000 1.000000
vn 1.000000 0.000000 0.000000
vn 1.000000 0.000000 0.000000
vn 1.000000 0.000000 0.000000
vn 1.000000 0.000000 0.000000
vn 0.000000 0.000000 1.000000
vn 0.000000 0.000000 1.000000
vn -1.000000 0.000000 0.000000
vn -1.000000 0.000000 0.000000
vn 0.000000 0.000000 -1.000000
vn 0.000000 0.000000 -1.000000
vn 0.000000 0.000000 -1.000000
vn 0.000000 0.000000 -1.000000
vn 1.000000 0.000000 0.000000
vn 1.000000 0.000000 0.000000
vn 1.000000 0.000000 0.000000
vn 1.000000 0.000000 0.000000
vn 0.000000 0.000000 1.000000
vn 0.000000 0.000000 1.000000
vn 0.000000 0.000000 1.000000
vn 0.000000 0.000000 1.000000
vn -1.000000 0.000000 0.000000
vn -1.000000 0.000000 0.000000
vn 0.000000 0.000000 -1.000000
vn 0.000000 0.000000 -1.000000
s 1
g pCube2
usemtl initialShadingGroup
f 9/15/1 10/16/2 11/17/3 12/18/4
s 2
f 3/3/5 4/4/6 6/6/7 5/5/8
s 3
f 13/19/9 14/20/10 15/21/11 16/22/12
s 4
f 7/7/13 8/8/14 2/10/15 1/9/16
s 5
f 18/23/17 17/24/18 19/25/19 20/26/20
s 6
f 25/27/21 26/28/22 27/29/23 28/30/24
s 4
f 1/1/16 2/2/15 10/16/25 9/15/26
s 5
f 18/23/17 20/26/20 21/31/27 22/32/28
s 2
f 4/4/6 3/3/5 12/18/29 11/17/30
s 6
f 27/29/23 26/28/22 29/33/31 30/34/32
s 2
f 5/5/8 6/6/7 14/20/33 13/19/34
s 5
f 19/38/19 17/35/18 23/36/35 24/37/36
s 4
f 8/8/14 7/7/13 16/22/37 15/21/38
s 6
f 25/42/21 28/39/24 31/40/39 32/41/40
s 4
f 2/2/15 8/11/14 17/24/41 18/23/42
s 2
f 6/12/7 4/4/6 20/26/43 19/25/44
f 4/13/6 11/1/30 21/28/45 20/27/43
s 1
f 11/3/3 10/14/2 22/30/46 21/29/47
s off
f 50/67/48 49/68/49 51/69/50 52/70/51
f 53/68/52 54/71/53 55/72/54 56/69/55
s 3
f 15/16/11 14/2/10 24/23/56 23/32/57
s 2
f 14/1/33 6/15/7 19/33/44 24/28/58
s 4
f 7/15/13 1/18/16 26/34/59 25/33/60
s 7
f 41/55/61 42/56/62 43/57/63 44/58/64
s off
f 57/73/65 58/74/66 59/75/67 60/76/68
s 1
f 9/21/1 12/20/4 30/37/69 29/36/70
s 7
f 45/59/71 41/60/61 44/61/64 46/62/72
f 42/63/62 47/64/73 48/65/74 43/66/63
s 3
f 13/19/9 16/22/12 32/41/75 31/40/76
s off
f 62/77/77 61/78/78 63/79/79 64/80/80
s 8
f 3/18/81 5/3/82 34/44/83 33/43/84
s 6
f 28/29/24 27/34/23 36/46/85 35/45/86
s 8
f 12/20/87 3/6/81 33/48/84 37/47/88
s 6
f 27/38/23 30/37/32 38/50/89 36/49/85
s 1
f 30/37/69 12/20/4 37/47/90 38/50/91
s 8
f 5/5/82 13/19/92 39/52/93 34/51/83
s 3
f 13/19/9 31/40/76 40/53/94 39/52/95
s 6
f 31/40/39 28/39/24 35/54/86 40/53/96
s 8
f 33/43/84 34/44/83 42/56/97 41/55/98
s 6
f 35/45/86 36/46/85 44/58/99 43/57/100
s 8
f 37/47/88 33/48/84 41/60/98 45/59/101
s 6
f 36/49/85 38/50/89 46/62/102 44/61/99
s 1
f 38/50/91 37/47/90 45/59/103 46/62/104
s 8
f 34/51/83 39/52/93 47/64/105 42/63/97
s 3
f 39/52/95 40/53/94 48/65/106 47/64/107
s 6
f 40/53/96 35/54/86 43/66/100 48/65/108
s off
f 10/4/109 2/17/110 49/68/111 50/67/112
f 2/17/113 18/31/114 51/69/115 49/68/116
s 5
f 18/31/17 22/26/28 52/70/117 51/69/118
s 1
f 22/26/46 10/4/2 50/67/119 52/70/120
s off
f 8/17/121 15/16/122 54/71/123 53/68/124
s 3
f 15/16/11 23/32/57 55/72/125 54/71/126
s 5
f 23/32/35 17/31/18 56/69/127 55/72/128
s off
f 17/31/129 8/17/130 53/68/131 56/69/132
f 1/8/133 9/21/134 58/74/135 57/73/136
s 1
f 9/21/1 29/36/70 59/75/137 58/74/138
s 6
f 29/36/31 26/35/22 60/76/139 59/75/140
s off
f 26/35/141 1/8/142 57/73/143 60/76/144
f 16/22/145 7/7/146 61/78/147 62/77/148
f 7/7/149 25/42/150 63/79/151 61/78/152
s 6
f 25/42/21 32/41/40 64/80/153 63/79/154
s 3
f 32/41/75 16/22/12 62/77/155 64/80/156
