# This file uses centimeters as units for non-parametric coordinates.

mtllib FootStool.mtl
g default
v -3.159856 5.592788 6.630929
v 3.527995 5.592788 6.630929
v -3.159856 6.592788 6.630929
v 3.527995 6.592788 6.630929
v -3.159856 6.592788 -6.630929
v 3.527995 6.592788 -6.630929
v -3.159856 5.592788 -6.630929
v 3.527995 5.592788 -6.630929
v -3.660145 5.747612 7.131218
v 4.028283 5.747612 7.131218
v 4.028283 6.437964 7.131218
v -3.660145 6.437964 7.131218
v -3.660145 6.437964 -7.131218
v 4.028283 6.437964 -7.131218
v 4.028283 5.747612 -7.131218
v -3.660145 5.747612 -7.131218
v 3.527995 5.592788 5.820204
v -3.159856 5.592788 5.820204
v -3.660144 5.747612 6.259326
v -3.660144 6.437964 6.259326
v -3.159856 6.592788 5.820204
v 3.527995 6.592788 5.820204
v 4.028283 6.437964 6.259326
v 4.028283 5.747612 6.259326
v 3.527995 5.592788 -5.850847
v -3.159856 5.592788 -5.850847
v -3.660145 5.747612 -6.292281
v -3.660145 6.437964 -6.292281
v -3.159856 6.592788 -5.850847
v 3.527995 6.592788 -5.850847
v 4.028283 6.437964 -6.292281
v 4.028284 5.747612 -6.292281
v 2.495611 5.592788 -6.630929
v 2.495611 5.592788 -5.850847
v 2.495611 5.592788 5.820204
v 2.495611 5.592788 6.630929
v 2.841443 5.747612 7.131218
v 2.841443 6.437964 7.131218
v 2.495611 6.592788 6.630929
v 2.495611 6.493448 5.820204
v 2.495611 6.493448 -5.850847
v 2.495611 6.592788 -6.630929
v 2.841443 6.437964 -7.131218
v 2.841443 5.747612 -7.131218
v -2.088687 5.592788 -6.630929
v -2.088687 5.592788 -5.850847
v -2.088687 5.592788 5.820204
v -2.088687 5.592788 6.630929
v -2.428717 5.747612 7.131218
v -2.428717 6.437964 7.131218
v -2.088687 6.592788 6.630929
v -2.088687 6.493448 5.820204
v -2.088687 6.493448 -5.850847
v -2.088687 6.592788 -6.630929
v -2.428717 6.437964 -7.131218
v -2.428717 5.747612 -7.131218
v -3.159856 0.046786 -6.630929
v -2.088687 0.046786 -6.630929
v -2.088687 0.046786 -5.850847
v -3.159856 0.046786 -5.850847
v -2.088687 0.046786 5.820204
v -3.159856 0.046786 5.820204
v -2.088687 0.046786 6.630929
v -3.159856 0.046786 6.630929
v 2.495611 0.046786 -6.630929
v 3.527995 0.046786 -6.630929
v 3.527995 0.046786 -5.850847
v 2.495611 0.046786 -5.850847
v 2.495611 0.046786 5.820204
v 2.495611 0.046786 6.630929
v 3.527995 0.046786 5.820204
v 3.527995 0.046786 6.630929
vt 0.375000 0.000000
vt 0.625000 0.000000
vt 0.375000 0.250000
vt 0.625000 0.250000
vt 0.375000 0.500000
vt 0.625000 0.500000
vt 0.375000 0.750000
vt 0.625000 0.750000
vt 0.375000 1.000000
vt 0.625000 1.000000
vt 0.875000 0.000000
vt 0.875000 0.250000
vt 0.125000 0.000000
vt 0.125000 0.250000
vt 0.375000 0.000000
vt 0.625000 0.000000
vt 0.625000 0.250000
vt 0.375000 0.250000
vt 0.375000 0.500000
vt 0.625000 0.500000
vt 0.625000 0.750000
vt 0.375000 0.750000
vt 0.875000 0.000000
vt 0.875000 0.250000
vt 0.125000 0.000000
vt 0.125000 0.250000
vt 0.625000 0.984717
vt 0.640283 0.000000
vt 0.359717 0.000000
vt 0.375000 0.984717
vt 0.359717 0.000000
vt 0.359717 0.250000
vt 0.359717 0.250000
vt 0.375000 0.265283
vt 0.625000 0.265283
vt 0.640283 0.250000
vt 0.640283 0.250000
vt 0.640283 0.000000
vt 0.625000 0.764705
vt 0.860295 0.000000
vt 0.139705 0.000000
vt 0.375000 0.764705
vt 0.139705 0.000000
vt 0.139705 0.250000
vt 0.139705 0.250000
vt 0.375000 0.485295
vt 0.625000 0.485295
vt 0.860295 0.250000
vt 0.860295 0.250000
vt 0.860295 0.000000
vt 0.586408 0.750000
vt 0.586408 0.764705
vt 0.586408 0.984717
vt 0.586408 0.000000
vt 0.586408 1.000000
vt 0.586408 0.000000
vt 0.586408 0.250000
vt 0.586408 0.250000
vt 0.586408 0.265283
vt 0.586408 0.485295
vt 0.586408 0.500000
vt 0.586408 0.500000
vt 0.586408 0.750000
vt 0.415042 0.750000
vt 0.415042 0.764705
vt 0.415042 0.984717
vt 0.415042 0.000000
vt 0.415042 1.000000
vt 0.415042 0.000000
vt 0.415042 0.250000
vt 0.415042 0.250000
vt 0.415042 0.265283
vt 0.415042 0.485295
vt 0.415042 0.500000
vt 0.415042 0.500000
vt 0.415042 0.750000
vt 0.375000 0.750000
vt 0.415042 0.750000
vt 0.415042 0.764705
vt 0.375000 0.764705
vt 0.375000 0.984717
vt 0.415042 0.984717
vt 0.415042 1.000000
vt 0.375000 1.000000
vt 0.586408 0.750000
vt 0.625000 0.750000
vt 0.625000 0.764705
vt 0.586408 0.764705
vt 0.586408 1.000000
vt 0.586408 0.984717
vt 0.625000 0.984717
vt 0.625000 1.000000
vn 0.000000 0.000000 1.000000
vn 0.000000 0.000000 1.000000
vn 0.000000 0.000000 1.000000
vn 0.000000 0.000000 1.000000
vn -0.049491 0.998771 0.002593
vn 0.016907 0.999832 0.007020
vn 0.004940 0.997549 -0.069796
vn -0.050807 0.995036 -0.085570
vn 0.000000 0.000000 -1.000000
vn 0.000000 0.000000 -1.000000
vn 0.000000 0.000000 -1.000000
vn 0.000000 0.000000 -1.000000
vn 0.000000 -1.000000 0.000000
vn 0.000000 -1.000000 0.000000
vn 0.000000 -1.000000 0.000000
vn 0.000000 -1.000000 0.000000
vn 1.000000 0.000001 0.000000
vn 1.000000 0.000001 -0.000000
vn 1.000000 0.000001 -0.000000
vn 1.000000 0.000001 0.000000
vn -1.000000 0.000001 -0.000000
vn -1.000000 0.000001 0.000000
vn -1.000000 0.000001 0.000000
vn -1.000000 0.000001 -0.000000
vn -0.118937 -0.975879 0.183067
vn 0.000000 -0.989206 0.146534
vn 0.000000 -0.955301 0.295636
vn -0.141037 -0.976784 0.161247
vn 0.005023 0.997653 0.068290
vn -0.051520 0.995176 0.083491
vn -0.141037 0.976784 0.161247
vn 0.000000 0.955301 0.295636
vn 0.000000 0.955301 -0.295636
vn -0.138134 0.976719 -0.164131
vn 0.000000 -0.955301 -0.295636
vn 0.000000 -0.988775 -0.149414
vn -0.116149 -0.975699 -0.185799
vn -0.138134 -0.976719 -0.164131
vn 0.295636 -0.955301 0.000000
vn 0.114517 -0.993421 0.000000
vn 0.118817 -0.975872 -0.183185
vn 0.140913 -0.976782 -0.161371
vn 0.052271 0.995022 -0.084847
vn 0.050683 0.998712 0.002560
vn 0.295636 0.955301 0.000000
vn 0.140913 0.976782 -0.161371
vn -0.111913 -0.993718 0.000000
vn -0.295636 -0.955301 0.000000
vn -0.295636 0.955301 0.000000
vn 0.000000 -1.000000 0.000000
vn 0.000000 -1.000000 0.000000
vn 0.000000 -1.000000 0.000000
vn 0.000000 -1.000000 0.000000
vn -0.295636 -0.955301 0.000000
vn -0.112016 -0.993706 0.000000
vn -1.000000 0.000001 0.000000
vn -1.000000 0.000001 0.000000
vn -1.000000 0.000000 -0.000000
vn -1.000000 0.000000 -0.000000
vn -0.049470 0.998772 -0.002588
vn -0.295636 0.955301 -0.000000
vn 0.016885 0.999833 -0.007006
vn 0.295636 0.955301 -0.000000
vn 0.050662 0.998713 -0.002554
vn 0.052998 0.995158 0.082775
vn 0.143822 0.976832 0.158477
vn 1.000000 0.000000 -0.000000
vn 1.000000 0.000001 0.000000
vn 1.000000 0.000001 0.000000
vn 1.000000 0.000000 -0.000000
vn 0.121626 -0.976039 0.180428
vn 0.114621 -0.993409 0.000000
vn 0.295636 -0.955301 0.000000
vn 0.143822 -0.976832 0.158477
vn 0.000000 -1.000000 0.000000
vn 0.000000 -1.000000 0.000000
vn 0.000000 -1.000000 0.000000
vn 0.000000 -1.000000 0.000000
vn 0.000000 -1.000000 0.000000
vn 0.000000 -1.000000 0.000000
vn 0.000000 -1.000000 0.000000
vn 0.000000 -1.000000 0.000000
vn 0.000000 -1.000000 0.000000
vn 0.000000 -1.000000 0.000000
vn 0.000000 -1.000000 0.000000
vn 0.000000 -1.000000 0.000000
vn 0.000000 -0.955301 0.295636
vn 0.000000 -0.989241 0.146298
vn 0.000000 0.000000 1.000000
vn 0.000000 0.000000 1.000000
vn 0.000000 0.000000 1.000000
vn 0.000000 0.000000 1.000000
vn -0.005050 0.997640 0.068476
vn 0.000000 0.955301 0.295636
vn -0.016996 0.999831 -0.007029
vn -0.017019 0.999830 0.007043
vn -0.004966 0.997536 -0.069983
vn 0.000000 0.955301 -0.295636
vn 0.000000 0.000000 -1.000000
vn 0.000000 0.000000 -1.000000
vn 0.000000 0.000000 -1.000000
vn 0.000000 0.000000 -1.000000
vn 0.000000 -0.988810 -0.149178
vn 0.000000 -0.955301 -0.295636
vn 0.000000 0.000000 -1.000000
vn 0.000000 0.000000 -1.000000
vn 0.000000 0.000000 -1.000000
vn 0.000000 0.000000 -1.000000
vn 1.000000 0.000000 0.000000
vn 1.000000 0.000000 0.000000
vn 1.000000 0.000000 0.000000
vn 1.000000 0.000000 0.000000
vn 0.000000 0.000000 1.000000
vn 0.000000 0.000000 1.000000
vn 0.000000 0.000000 1.000000
vn 0.000000 0.000000 1.000000
vn -1.000000 0.000000 0.000000
vn -1.000000 0.000000 0.000000
vn -1.000000 0.000000 0.000000
vn -1.000000 0.000000 0.000000
vn 0.000000 0.000000 -1.000000
vn 0.000000 0.000000 -1.000000
vn 0.000000 0.000000 -1.000000
vn 0.000000 0.000000 -1.000000
vn 1.000000 0.000000 0.000000
vn 1.000000 0.000000 0.000000
vn 1.000000 0.000000 0.000000
vn 1.000000 0.000000 0.000000
vn 0.000000 0.000000 1.000000
vn 0.000000 0.000000 1.000000
vn 0.000000 0.000000 1.000000
vn 0.000000 0.000000 1.000000
vn -1.000000 0.000000 0.000000
vn -1.000000 0.000000 0.000000
vn -1.000000 0.000000 0.000000
vn -1.000000 0.000000 0.000000
vn 0.000000 0.000000 -1.000000
vn 0.000000 0.000000 -1.000000
vn 0.000000 0.000000 -1.000000
vn 0.000000 0.000000 -1.000000
vn 1.000000 0.000000 0.000000
vn 1.000000 0.000000 0.000000
vn 1.000000 0.000000 0.000000
vn 1.000000 0.000000 0.000000
vn 0.000000 0.000000 1.000000
vn 0.000000 0.000000 1.000000
vn 0.000000 0.000000 1.000000
vn 0.000000 0.000000 1.000000
vn -1.000000 0.000000 0.000000
vn -1.000000 0.000000 0.000000
vn -1.000000 0.000000 0.000000
vn -1.000000 0.000000 0.000000
vn -1.000000 0.000000 0.000000
vn -1.000000 0.000000 0.000000
vn -1.000000 0.000000 0.000000
vn -1.000000 0.000000 0.000000
vn 0.000000 0.000000 -1.000000
vn 0.000000 0.000000 -1.000000
vn 0.000000 0.000000 -1.000000
vn 0.000000 0.000000 -1.000000
vn 1.000000 0.000000 0.000000
vn 1.000000 0.000000 0.000000
vn 1.000000 0.000000 0.000000
vn 1.000000 0.000000 0.000000
vn 0.000000 0.000000 1.000000
vn 0.000000 0.000000 1.000000
vn 0.000000 0.000000 1.000000
vn 0.000000 0.000000 1.000000
s 1
g pCube1
usemtl initialShadingGroup
f 9/15/1 49/69/2 50/70/3 12/18/4
s 2
f 29/46/5 53/73/6 54/74/7 5/5/8
s 3
f 13/19/9 55/75/10 56/76/11 16/22/12
s off
f 57/77/13 58/78/14 59/79/15 60/80/16
s 4
f 32/50/17 15/23/18 14/24/19 31/49/20
s 5
f 16/25/21 27/43/22 28/44/23 13/26/24
s 6
f 1/1/25 48/67/26 49/69/27 9/15/28
s 2
f 51/71/29 3/3/30 12/18/31 50/70/32
f 5/5/8 54/74/7 55/75/33 13/19/34
s 6
f 56/76/35 45/64/36 7/7/37 16/22/38
f 32/50/39 25/40/40 8/11/41 15/23/42
s 2
f 6/12/43 30/48/44 31/49/45 14/24/46
s 6
f 7/13/37 26/41/47 27/43/48 16/25/38
s 2
f 29/45/5 5/14/8 13/26/34 28/44/49
s off
f 62/81/50 61/82/51 63/83/52 64/84/53
s 6
f 19/31/54 18/29/55 1/1/25 9/15/28
s 5
f 20/32/56 19/31/57 9/15/58 12/18/59
s 2
f 3/3/30 21/33/60 20/32/61 12/18/31
f 3/3/30 51/71/29 52/72/62 21/34/60
f 23/37/63 22/36/64 4/4/65 11/17/66
s 4
f 10/16/67 24/38/68 23/37/69 11/17/70
s 6
f 2/2/71 17/28/72 24/38/73 10/16/74
f 26/42/47 46/65/75 47/66/76 18/30/55
f 27/43/48 26/41/47 18/29/55 19/31/54
s 5
f 28/44/23 27/43/22 19/31/57 20/32/56
s 2
f 21/33/60 29/45/5 28/44/49 20/32/61
f 21/34/60 52/72/62 53/73/6 29/46/5
f 31/49/45 30/48/44 22/36/64 23/37/63
s 4
f 24/38/68 32/50/17 31/49/20 23/37/69
s 6
f 24/38/73 17/28/72 25/40/40 32/50/39
s off
f 65/85/77 66/86/78 67/87/79 68/88/80
s 6
f 35/53/81 34/52/82 25/39/40 17/27/72
s off
f 70/89/83 69/90/84 71/91/85 72/92/86
s 6
f 37/56/87 36/54/88 2/2/71 10/16/74
s 1
f 38/57/89 37/56/90 10/16/91 11/17/92
s 2
f 4/4/65 39/58/93 38/57/94 11/17/66
f 40/59/95 39/58/93 4/4/65 22/35/64
f 41/60/96 40/59/95 22/35/64 30/47/44
f 42/61/97 41/60/96 30/47/44 6/6/43
f 43/62/98 42/61/97 6/6/43 14/20/46
s 3
f 44/63/99 43/62/100 14/20/101 15/21/102
s 6
f 8/8/41 33/51/103 44/63/104 15/21/42
f 45/64/36 33/51/103 34/52/82 46/65/75
f 47/66/76 46/65/75 34/52/82 35/53/81
f 48/68/26 47/66/76 35/53/81 36/55/88
f 49/69/27 48/67/26 36/54/88 37/56/87
s 1
f 50/70/3 49/69/2 37/56/90 38/57/89
s 2
f 39/58/93 51/71/29 50/70/32 38/57/94
f 52/72/62 51/71/29 39/58/93 40/59/95
f 53/73/6 52/72/62 40/59/95 41/60/96
f 54/74/7 53/73/6 41/60/96 42/61/97
f 55/75/33 54/74/7 42/61/97 43/62/98
s 3
f 56/76/11 55/75/10 43/62/100 44/63/99
s 6
f 44/63/104 33/51/103 45/64/36 56/76/35
s off
f 7/7/105 45/64/106 58/78/107 57/77/108
f 45/64/109 46/65/110 59/79/111 58/78/112
f 46/65/113 26/42/114 60/80/115 59/79/116
f 26/42/117 7/7/118 57/77/119 60/80/120
f 18/30/121 47/66/122 61/82/123 62/81/124
f 47/66/125 48/68/126 63/83/127 61/82/128
f 48/68/129 1/9/130 64/84/131 63/83/132
f 1/9/133 18/30/134 62/81/135 64/84/136
f 33/51/137 8/8/138 66/86/139 65/85/140
f 8/8/141 25/39/142 67/87/143 66/86/144
f 25/39/145 34/52/146 68/88/147 67/87/148
f 34/52/149 33/51/150 65/85/151 68/88/152
f 36/55/153 35/53/154 69/90/155 70/89/156
f 35/53/157 17/27/158 71/91/159 69/90/160
f 17/27/161 2/10/162 72/92/163 71/91/164
f 2/10/165 36/55/166 70/89/167 72/92/168
